<svg xmlns="http://www.w3.org/2000/svg" viewBox="0 0 410 404" fill="none">
  <path d="M399.641 59.524L215.643 388.545c-3.799 6.793-13.559 6.833-17.415.073L10.581 59.556c-4.193-7.352 2.096-16.055 10.446-14.456l184.07 35.243a10 10 0 0 0 3.773-.002l180.341-35.191c8.321-1.624 14.647 7.006 10.43 14.374z" fill="#646CFF"/>
  <path d="M292.965 1.574L156.801 28.255a5 5 0 0 0-4.016 4.468l-8.376 141.082a5 5 0 0 0 6.088 5.094l37.91-8.75a5 5 0 0 1 6.04 5.835l-11.264 55.208a5 5 0 0 0 6.557 5.667l23.415-8.945a5 5 0 0 1 6.756 5.371l-17.899 86.423c-1.036 5.002 5.602 7.736 8.325 3.412l1.819-2.889 110.279-220.04a5 5 0 0 0-5.921-7.094l-38.834 11.257a5 5 0 0 1-6.363-5.523l25.287-91.983a5 5 0 0 0-5.64-6.274z" fill="#FFD62E"/>
</svg>
